<?xml version="1.0" standalone="no"?>
<!DOCTYPE svg PUBLIC "-//W3C//DTD SVG 1.1//EN" "http://www.w3.org/Graphics/SVG/1.1/DTD/svg11.dtd" >
<svg xmlns="http://www.w3.org/2000/svg" xmlns:xlink="http://www.w3.org/1999/xlink" version="1.1" viewBox="-10 0 321 1000">
   <path fill="currentColor"
d="M170.239 366.48q-41.0801 0 -69.6797 -18t-43.4199 -54.2402t-15.3398 -90q0 -47.04 8.58008 -82.3203q8.58008 -35.2793 26 -59.5195t44.1992 -38.6396q26.7803 -14.4004 64.2207 -20.1602q8.83984 -1.44043 23.9199 -3.60059t33.0195 -4.31934
q17.9404 -2.16016 35.1006 -3.60059l4.16016 37.9199q-16.6406 1.44043 -34.8408 3.60059q-18.1992 2.16016 -33.7998 4.08008q-15.5996 1.91992 -24.96 3.83984q-32.2402 5.2793 -52.7803 17.5195t-31.7197 34.0801t-16.3799 55.9199h2.59961q8.32031 -12 21.8408 -20.6396
q13.5195 -8.63965 31.46 -13.6797q17.9395 -5.04004 39.2598 -5.04004q35.8799 0 62.3994 14.1592q26.5205 14.1602 41.0801 41.7607q14.5605 27.5996 14.5605 68.3994q0 40.3203 -16.1201 70.0801t-44.9805 46.0801q-28.8594 16.3203 -68.3799 16.3203zM171.279 331.44
q25.4805 0 43.1602 -11.2803t27.2998 -33.1201t9.62012 -52.5596q0 -44.6406 -19.7598 -67.6807q-19.7598 -23.0391 -60.3203 -23.0391q-39.5195 0 -59.7998 22.3193q-20.2803 22.3203 -20.2803 66.96q0 31.2002 9.62012 53.2803t27.5605 33.5996
q17.9395 11.5205 42.8994 11.5205z" />
</svg>
