<?xml version="1.0" standalone="no"?>
<!DOCTYPE svg PUBLIC "-//W3C//DTD SVG 1.1//EN" "http://www.w3.org/Graphics/SVG/1.1/DTD/svg11.dtd" >
<svg xmlns="http://www.w3.org/2000/svg" xmlns:xlink="http://www.w3.org/1999/xlink" version="1.1" viewBox="-10 0 413 1000">
   <path fill="currentColor"
d="M226.205 495.74q-85.2002 0 -133.125 -46.9004q-47.9248 -46.8994 -47.9248 -136.01q0 -59.6299 22.0098 -101.84t62.835 -64.9902t98.335 -22.7803q27.6904 0 55.3799 5.36035q44.9385 8.92676 48.2803 16.0801q14.6963 60.665 -19.1699 46.2305
q-21.8252 -8.89062 -41.1797 -13.7354q-19.1709 -4.35547 -43.3105 -4.35547q-57.5098 0 -88.04 35.8457q-30.5303 35.8447 -30.5303 103.515q0 67 30.5303 100.5t92.2998 33.5q21.3008 0 44.7305 -4.01953q23.6748 -4.14062 45.4395 -12.0605q22.2354 17.9199 0 49.5801
q-3.76465 5.33984 -43.3096 11.7246q-25.5596 4.35547 -53.25 4.35547z" />
</svg>
