<?xml version="1.0" standalone="no"?>
<!DOCTYPE svg PUBLIC "-//W3C//DTD SVG 1.1//EN" "http://www.w3.org/Graphics/SVG/1.1/DTD/svg11.dtd" >
<svg xmlns="http://www.w3.org/2000/svg" xmlns:xlink="http://www.w3.org/1999/xlink" version="1.1" viewBox="-10 0 533 1000">
   <path fill="currentColor"
d="M318 72v290.062h47.1426v44.1934h-297.311v115.775h-51.542v-159.969h24.5137q26.4004 -36.7246 44.3145 -82.4746t27.9707 -98.3467q10.0576 -52.5977 11.9424 -109.241h192.969zM172.174 116.817q-2.51465 36.1016 -8.17188 69.4033q-5.65625 33.2998 -14.457 64.1113
q-8.7998 30.8115 -21.0566 58.5107q-12.2568 27.6982 -27.9707 53.2197h162.169v-245.245h-90.5127zM406.627 353.349q19.4863 0 34.2578 5.29004q14.7705 5.29004 23.5713 14.9385q8.7998 9.64746 8.7998 23.9648q0 14.3164 -9.11523 24.2754
q-9.11426 9.95898 -26.085 13.6943v1.24414q18.8574 3.73535 29.8574 13.3838q11 9.64746 11 25.8311q0 22.4082 -20.1143 36.7246q-20.1143 14.3154 -60.9717 14.3154q-18.2275 0 -34.2559 -2.7998q-16.0283 -2.80176 -28.6006 -9.02637v-31.7451
q13.2002 6.22559 28.2861 10.2715t31.4287 4.0459q21.999 0 34.5703 -6.22559q12.5713 -6.22363 12.5713 -17.4277t-11.9424 -17.7402q-11.9434 -6.53516 -37.7148 -6.53516h-23.8848v-26.1436h23.8848q23.2578 0 34.8857 -5.91309q11.6289 -5.91309 11.6289 -16.4951
q0 -7.46973 -8.7998 -13.0713q-8.80078 -5.60254 -26.4004 -5.60254q-13.1992 0 -27.0283 3.73535q-13.8281 3.73438 -27.0283 10.582l-12.5703 -26.1436q14.457 -8.71387 31.4277 -13.0713q16.9707 -4.35645 38.3418 -4.35645z" />
</svg>
