<?xml version="1.0" standalone="no"?>
<!DOCTYPE svg PUBLIC "-//W3C//DTD SVG 1.1//EN" "http://www.w3.org/Graphics/SVG/1.1/DTD/svg11.dtd" >
<svg xmlns="http://www.w3.org/2000/svg" xmlns:xlink="http://www.w3.org/1999/xlink" version="1.1" viewBox="-10 0 315 1000">
   <path fill="currentColor"
d="M134.088 499.54q-34.1611 0 -66.5781 -5.65723q-32.418 -5.6582 -56.8174 -15.5596v-53.748q29.9766 11.3154 61.3477 17.6807q31.373 6.36523 61.3496 6.36523q49.498 0 73.2012 -16.6201q23.7031 -16.6191 23.7031 -48.4443q0 -32.5322 -25.0967 -48.0908
q-25.0977 -15.5586 -78.7783 -15.5586h-61.3496v-50.2129h61.3496q46.709 0 70.0635 -14.498t23.3545 -43.4932q0 -26.875 -19.8691 -40.3115q-19.8682 -13.4375 -62.3955 -13.4375q-24.3994 0 -48.4512 4.9502q-24.0518 4.95117 -56.1211 19.0957l-18.125 -50.2139
q27.1885 -12.0215 59.2578 -18.7402q32.0684 -6.71875 66.9258 -6.71875q66.2295 0 103.875 26.5205q37.6465 26.5205 37.6465 73.1963q0 32.5332 -19.1709 54.4561q-19.1719 21.9248 -57.5156 30.4102v2.83008q43.9209 9.19336 66.2295 33.5928t22.3086 59.7598
q0 53.042 -41.1318 82.7451q-41.1318 29.7021 -119.212 29.7021z" />
</svg>
