<?xml version="1.0" standalone="no"?>
<!DOCTYPE svg PUBLIC "-//W3C//DTD SVG 1.1//EN" "http://www.w3.org/Graphics/SVG/1.1/DTD/svg11.dtd" >
<svg xmlns="http://www.w3.org/2000/svg" xmlns:xlink="http://www.w3.org/1999/xlink" version="1.1" viewBox="-10 0 424 1000">
   <path fill="currentColor"
d="M191.396 486.11q-56.9297 0 -98.3887 -20.6855q-41.46 -20.6846 -64.0469 -59.0146q-22.585 -38.3291 -22.585 -90.6514q0 -52.9307 22.8945 -91.2598q22.8955 -38.3291 64.9746 -59.0156q42.0771 -20.6855 100.246 -20.6855h20.4189q58.1689 0 100.246 20.6855
q42.0791 20.6865 64.9746 59.0156q22.8945 38.3291 22.8945 91.2598q0 52.3223 -22.585 90.6514q-22.5869 38.3301 -64.0469 59.0146q-41.459 20.6855 -98.3887 20.6855h-26.6084zM177.783 623v-155.142l1.2373 -7.9082v-289.6l-1.2373 -11.5596v-144.19h53.2168v144.19
l-0.619141 11.5596v289.6l0.619141 7.9082v155.142h-53.2168zM195.109 442.307h18.5635q64.3555 0 98.0811 -32.8545q33.7246 -32.8535 33.7246 -93.6934q0 -61.4492 -34.0352 -94.3027q-34.0332 -32.8525 -98.3887 -32.8525h-17.3262q-63.7373 0 -97.7705 32.8525
q-34.0352 32.8535 -34.0352 94.3027q0 60.8398 33.7246 93.6934q33.7256 32.8545 97.4619 32.8545z" />
</svg>
