<?xml version="1.0" standalone="no"?>
<!DOCTYPE svg PUBLIC "-//W3C//DTD SVG 1.1//EN" "http://www.w3.org/Graphics/SVG/1.1/DTD/svg11.dtd" >
<svg xmlns="http://www.w3.org/2000/svg" xmlns:xlink="http://www.w3.org/1999/xlink" version="1.1" viewBox="-10 0 413 1000">
   <path fill="currentColor"
d="M69.7969 455.39v-381.135l140.353 -0.710938q42.4316 0 72.4609 11.041q29.375 11.043 44.3896 32.415q15.0146 21.3711 15.0146 52.7168q0 33.4834 -17.626 54.1426q-17.625 20.6602 -52.876 28.4961v2.84961q40.4727 5.69922 61.0361 29.209
q20.5635 23.5088 20.5635 61.2656q0 30.6338 -14.3623 55.5664q-14.3613 24.9346 -45.6953 39.5391t-82.252 14.6045h-141.006zM127.243 404.096h77.0303q45.6973 0 67.2393 -14.6025q21.542 -14.6045 21.542 -45.9502q0 -31.3467 -21.8691 -46.6631
q-21.8691 -15.3154 -68.2178 -15.3154h-75.7246v122.531zM127.243 230.983h69.1973q45.043 0 65.9336 -12.8232q20.8887 -12.8232 20.8887 -40.6064q0 -27.0703 -18.6045 -39.8945q-18.6045 -12.8232 -57.7734 -12.8232h-79.6416v106.147z" />
</svg>
