<?xml version="1.0" standalone="no"?>
<!DOCTYPE svg PUBLIC "-//W3C//DTD SVG 1.1//EN" "http://www.w3.org/Graphics/SVG/1.1/DTD/svg11.dtd" >
<svg xmlns="http://www.w3.org/2000/svg" xmlns:xlink="http://www.w3.org/1999/xlink" version="1.1" viewBox="-10 0 413 1000">
   <path fill="currentColor"
d="M159.513 456.342q-37.4951 0 -63.4014 -12.2705q-25.9072 -12.2715 -39.2012 -36.1299q-13.2949 -23.8584 -13.2949 -57.2598q0 -56.5801 42.9502 -87.2559q42.9492 -30.6768 129.534 -33.4014l62.04 -2.04492v-21.1348q0 -41.582 -19.4307 -60.668
q-19.4297 -19.0859 -61.6973 -19.0859q-25.2266 0 -51.8145 6.47363q-26.5898 6.47656 -55.9043 19.4277l-19.7715 -47.0342q34.0869 -14.998 65.1084 -21.8135q31.0186 -6.81934 63.0615 -6.81934q69.54 0 104.309 30.6748q34.7705 30.6768 34.7705 92.0273v249.495
h-43.6318l-11.5908 -52.4883h-2.72754q-16.3613 20.4512 -34.0879 33.7451q-17.7236 13.292 -38.5186 19.4277q-20.7939 6.13477 -46.7012 6.13477zM174.512 407.941q43.6338 0 73.29 -25.5615q29.6562 -25.5645 29.6562 -79.417v-30.6768l-53.8594 2.0459
q-61.3574 2.72656 -89.6514 20.4502q-28.292 17.7246 -28.292 53.1709q0 29.3125 17.7246 44.6514q17.7275 15.3369 51.1318 15.3369z" />
</svg>
