<?xml version="1.0" standalone="no"?>
<!DOCTYPE svg PUBLIC "-//W3C//DTD SVG 1.1//EN" "http://www.w3.org/Graphics/SVG/1.1/DTD/svg11.dtd" >
<svg xmlns="http://www.w3.org/2000/svg" xmlns:xlink="http://www.w3.org/1999/xlink" version="1.1" viewBox="-10 0 413 1000">
   <path fill="currentColor"
d="M177.91 429.749q-51.2158 0 -86.873 -21.6006q-35.6562 -21.5957 -54.1328 -65.0811q-18.4775 -43.4873 -19.125 -107.994q0 -56.4424 10.6973 -98.7783q10.6973 -42.3301 32.416 -71.417q21.7168 -29.0859 55.1035 -46.3643q33.3887 -17.2812 80.0664 -24.1914
q11.0225 -1.72852 29.8223 -4.32031q18.8008 -2.5918 41.168 -5.18164q22.3672 -2.5918 43.7617 -4.32227l5.18555 45.502q-20.7451 1.72754 -43.4375 4.32031q-22.6895 2.59277 -42.1387 4.89648t-31.1191 4.60742q-40.1943 6.33496 -65.8047 21.0215
q-25.6074 14.6875 -39.5439 40.8926q-13.9404 26.2061 -20.4229 67.1006h3.24121q10.373 -14.4004 27.2295 -24.7666q16.8555 -10.3672 39.2236 -16.4141q22.3652 -6.04785 48.9463 -6.04785q44.7324 0 77.7959 16.9912q33.0635 16.9902 51.2158 50.1084
q18.1543 33.1162 18.1543 82.0723q0 48.3809 -20.0977 84.0908q-20.0996 35.709 -56.0801 55.292q-35.9805 19.584 -85.252 19.584zM179.208 387.703q31.7666 0 53.8076 -13.5332q22.043 -13.5371 34.0371 -39.7432q11.9922 -26.2051 11.9922 -63.0674
q0 -53.5645 -24.6348 -81.2109q-24.6348 -27.6445 -75.2021 -27.6445q-49.2715 0 -74.5557 26.7812q-25.2852 26.7812 -25.2852 80.3467q0 37.4365 11.9941 63.9307q11.9951 26.4951 34.3613 40.3174q22.3662 13.8232 53.4854 13.8232z" />
</svg>
