<?xml version="1.0" standalone="no"?>
<!DOCTYPE svg PUBLIC "-//W3C//DTD SVG 1.1//EN" "http://www.w3.org/Graphics/SVG/1.1/DTD/svg11.dtd" >
<svg xmlns="http://www.w3.org/2000/svg" xmlns:xlink="http://www.w3.org/1999/xlink" version="1.1" viewBox="-10 0 413 1000">
   <path fill="currentColor"
d="M50.208 649.504v-535.193h49.1221l8.18652 50.3457h2.72949q10.915 -15.8613 26.2676 -28.9668q15.3496 -13.1025 36.8398 -20.6914q21.4922 -7.58594 50.8271 -7.58594q67.542 0 108.819 47.5879q41.2764 47.5879 41.2764 143.455q0 62.7617 -18.7617 105.867
q-18.7637 43.1045 -52.5332 64.8281q-33.7715 21.7266 -79.4824 21.7266q-27.9717 0 -49.8057 -7.58691q-21.8301 -7.58496 -37.1797 -19.6553q-15.3525 -12.0713 -26.2676 -26.5537h-4.09473q1.36523 11.7246 2.72949 29.6572q1.36523 17.9316 1.36523 31.0352v151.73
h-60.0381zM214.631 440.53q32.748 0 54.2393 -18.6221q21.4893 -18.6221 32.0645 -50.6914q10.5762 -32.0713 10.5762 -73.4521q0 -63.4502 -23.8799 -101.383q-23.8789 -37.9336 -74.3652 -37.9336q-36.8418 0 -59.6963 14.1406q-22.8564 14.1367 -33.0889 42.4141
q-10.2344 28.2773 -10.2344 71.7295v11.7227q0 45.5195 9.55078 77.2441q9.55273 31.7266 32.4082 48.2783q22.8545 16.5527 62.4258 16.5527z" />
</svg>
