<?xml version="1.0" standalone="no"?>
<!DOCTYPE svg PUBLIC "-//W3C//DTD SVG 1.1//EN" "http://www.w3.org/Graphics/SVG/1.1/DTD/svg11.dtd" >
<svg xmlns="http://www.w3.org/2000/svg" xmlns:xlink="http://www.w3.org/1999/xlink" version="1.1" viewBox="-10 0 413 1000">
   <path fill="currentColor"
d="M222.12 490.76q-54.7207 0 -96.8398 -22.0098q-42.1201 -22.0098 -65.5205 -65.6748t-23.4004 -106.855q0 -62.4795 21.2402 -107.21q21.2402 -44.7295 59.7598 -68.8701q38.5205 -24.1396 89.6406 -24.1396q49.6797 0 85.3193 21.2998q35.6406 21.2998 54.7207 59.9951
t19.0801 90.5254v39.0498h-263.521q2.16016 63.8994 33.8398 97.2695q31.6807 33.3701 88.5605 33.3701q36.7197 0 65.1602 -6.74512q28.4395 -6.74512 58.6797 -19.5244v54.6699q-29.5205 12.7803 -58.3203 18.8145q-28.7998 6.03516 -68.3994 6.03516zM104.04 255.75
h195.12q0 -32.6602 -10.0801 -56.7998q-10.0801 -24.1406 -30.6006 -37.9854q-20.5195 -13.8447 -52.1992 -13.8447q-44.6406 0 -70.9209 28.7549q-26.2793 28.7549 -31.3193 79.875z" />
</svg>
