<?xml version="1.0" standalone="no"?>
<!DOCTYPE svg PUBLIC "-//W3C//DTD SVG 1.1//EN" "http://www.w3.org/Graphics/SVG/1.1/DTD/svg11.dtd" >
<svg xmlns="http://www.w3.org/2000/svg" xmlns:xlink="http://www.w3.org/1999/xlink" version="1.1" viewBox="-10 0 551 1000">
   <path fill="currentColor"
d="M337.072 482.754q-51.8643 0 -89.3604 -22.3271q-37.4961 -22.3262 -57.4707 -65.9492q-19.9746 -43.6221 -19.9746 -106.823l28.7354 24.0439h-100.224v164.185h-61.6758v-368.215h61.6758v153.194h100.925l-29.4365 23.3564q1.40137 -59.7656 21.7275 -100.641
q20.3242 -40.875 57.8203 -61.8271t88.6592 -20.9521q49.0605 0 86.2061 22.3262q37.1465 22.3262 58.1709 64.5752q21.0264 42.249 21.0264 103.389q0 61.1406 -20.3242 104.076q-20.3262 42.9355 -57.8223 65.2617q-37.4961 22.3271 -88.6582 22.3271zM337.772 432.604
q53.9668 0 77.7969 -36.0664q23.8281 -36.0645 23.8281 -105.449q0 -69.3838 -24.1797 -104.764q-24.1797 -35.3779 -77.4453 -35.3779q-54.667 0 -79.1973 35.3779q-24.5293 35.3799 -24.5293 104.764q0 69.3848 24.5293 105.449q24.5303 36.0664 79.1973 36.0664z" />
</svg>
