<?xml version="1.0" standalone="no"?>
<!DOCTYPE svg PUBLIC "-//W3C//DTD SVG 1.1//EN" "http://www.w3.org/Graphics/SVG/1.1/DTD/svg11.dtd" >
<svg xmlns="http://www.w3.org/2000/svg" xmlns:xlink="http://www.w3.org/1999/xlink" version="1.1" viewBox="-10 0 413 1000">
   <path fill="currentColor"
d="M367.279 255.493q0 59.3271 -20.834 100.99q-20.835 41.6621 -59.0889 63.3271q-38.2529 21.6641 -90.8516 21.6641q-48.501 0 -86.4121 -21.6641q-37.9121 -21.665 -59.7715 -63.3271q-21.8594 -41.6631 -21.8594 -100.99q0 -88.6572 45.7686 -136.653
q45.7666 -47.9941 124.323 -47.9941q49.8662 0 87.7783 21.6631q37.9121 21.665 59.4297 62.6602q21.5176 40.9961 21.5176 100.324zM197.871 392.812q34.8369 0 57.7217 -13.332q22.8838 -13.3311 34.8379 -39.6621q11.9551 -26.3311 14.0029 -64.3281h-213.81
q2.0498 37.9971 14.3457 64.3281q12.2949 26.3311 35.1797 39.6621q22.8828 13.332 57.7217 13.332zM197.188 120.174q-50.5488 0 -75.8242 26.9961q-25.2754 26.998 -30.0557 79.6592h213.126q-3.41504 -35.3291 -16.0527 -58.9941q-12.6367 -23.6641 -35.1797 -35.6631
q-22.542 -11.998 -56.0137 -11.998z" />
</svg>
