<?xml version="1.0" standalone="no"?>
<!DOCTYPE svg PUBLIC "-//W3C//DTD SVG 1.1//EN" "http://www.w3.org/Graphics/SVG/1.1/DTD/svg11.dtd" >
<svg xmlns="http://www.w3.org/2000/svg" xmlns:xlink="http://www.w3.org/1999/xlink" version="1.1" viewBox="-10 0 268 1000">
   <path fill="currentColor"
d="M73.6289 645.299q-17.1904 0 -30.2529 -2.08203q-13.0635 -2.08301 -22.6904 -5.05762v-42.2451q10.3135 2.37891 21.3145 4.16504q11.001 1.78418 24.0645 1.78418q22.001 0 36.4404 -10.4141q14.4365 -10.4111 14.4365 -39.5664v-368.312h60.5049v366.526
q0 29.749 -11.001 51.1709q-11.001 21.4209 -33.6885 32.7266q-22.6895 11.3037 -59.1279 11.3037zM112.13 97.2939q0 -17.2539 10.3125 -25.2881q10.3145 -8.03125 25.4385 -8.03125q13.752 0 24.4092 8.03125q10.6572 8.03418 10.6572 25.2881q0 16.6621 -10.6572 24.9912
q-10.6572 8.33008 -24.4092 8.33008q-15.124 0 -25.4385 -8.33008q-10.3125 -8.3291 -10.3125 -24.9912z" />
</svg>
