<?xml version="1.0" standalone="no"?>
<!DOCTYPE svg PUBLIC "-//W3C//DTD SVG 1.1//EN" "http://www.w3.org/Graphics/SVG/1.1/DTD/svg11.dtd" >
<svg xmlns="http://www.w3.org/2000/svg" xmlns:xlink="http://www.w3.org/1999/xlink" version="1.1" viewBox="-10 0 321 1000">
   <path fill="currentColor"
d="M59 368.2v-278.2l103.2 -0.519531q31.2002 0 53.2803 8.05957q21.5996 8.06055 32.6396 23.6602t11.04 38.4795q0 24.4404 -12.96 39.5205t-38.8799 20.7998v2.08008q29.7598 4.16016 44.8799 21.3203t15.1201 44.7197q0 22.3604 -10.5605 40.5596
q-10.5596 18.2002 -33.5996 28.8604t-60.4795 10.6602h-103.681zM101.24 330.76h56.6396q33.6006 0 49.4404 -10.6592q15.8398 -10.6602 15.8398 -33.54q0 -22.8809 -16.0801 -34.0605t-50.1602 -11.1797h-55.6797v89.4395zM101.24 204.4h50.8799
q33.1201 0 48.4805 -9.36035q15.3594 -9.36035 15.3594 -29.6396q0 -19.7598 -13.6797 -29.1201t-42.4805 -9.36035h-58.5596v77.4805z" />
</svg>
