<?xml version="1.0" standalone="no"?>
<!DOCTYPE svg PUBLIC "-//W3C//DTD SVG 1.1//EN" "http://www.w3.org/Graphics/SVG/1.1/DTD/svg11.dtd" >
<svg xmlns="http://www.w3.org/2000/svg" xmlns:xlink="http://www.w3.org/1999/xlink" version="1.1" viewBox="-10 0 321 1000">
   <path fill="currentColor"
d="M125.271 341.744q-27.377 0 -46.292 -8.0459q-18.916 -8.0459 -28.6221 -23.6895q-9.70703 -15.6445 -9.70703 -37.5459q0 -37.0986 31.3594 -57.2129t94.5781 -21.9014l45.2979 -1.34082v-13.8574q0 -27.2656 -14.1875 -39.7803q-14.1865 -12.5146 -45.0479 -12.5146
q-18.418 0 -37.8311 4.24512q-19.4141 4.24707 -40.8184 12.7393l-14.4355 -30.8408q24.8887 -9.83398 47.5381 -14.3027q22.6484 -4.4707 46.0439 -4.4707q50.7734 0 76.1602 20.1133q25.3867 20.1143 25.3867 60.3418v163.593h-31.8574l-8.46289 -34.417h-1.99121
q-11.9463 13.4102 -24.8887 22.126q-12.9414 8.71582 -28.124 12.7393q-15.1826 4.02246 -34.0986 4.02246zM136.222 310.009q31.8584 0 53.5117 -16.7617t21.6533 -52.0723v-20.1143l-39.3242 1.34082q-44.7998 1.78809 -65.458 13.4092q-20.6572 11.6221 -20.6572 34.8643
q0 19.2197 12.9414 29.2773q12.9434 10.0566 37.333 10.0566z" />
</svg>
