<?xml version="1.0" standalone="no"?>
<!DOCTYPE svg PUBLIC "-//W3C//DTD SVG 1.1//EN" "http://www.w3.org/Graphics/SVG/1.1/DTD/svg11.dtd" >
<svg xmlns="http://www.w3.org/2000/svg" xmlns:xlink="http://www.w3.org/1999/xlink" version="1.1" viewBox="-10 0 425 1000">
   <path fill="currentColor"
d="M7.94336 510.021v-138.03h37.8564q15.5479 -18.0596 25.3496 -38.0547q9.80273 -19.9951 15.8877 -44.1826q6.08301 -24.1875 8.78711 -54.5029q1.35254 -11.6094 2.36621 -23.542t2.02832 -29.0254q1.01367 -17.0928 2.36621 -43.2148q1.35156 -26.1221 2.7041 -65.4678
h244.711v297.99h54.7559v138.03h-57.46v-90.2998h-281.892v90.2998h-57.4609zM110.021 371.99h181.168v-250.26h-133.848q-0.676758 19.9951 -2.02832 39.3447q-1.35254 19.3496 -2.7041 37.0879q-1.35254 17.7373 -2.7041 33.8623q-4.05664 47.7295 -13.8584 81.2695
t-26.0254 58.6953z" />
</svg>
