<?xml version="1.0" standalone="no"?>
<!DOCTYPE svg PUBLIC "-//W3C//DTD SVG 1.1//EN" "http://www.w3.org/Graphics/SVG/1.1/DTD/svg11.dtd" >
<svg xmlns="http://www.w3.org/2000/svg" xmlns:xlink="http://www.w3.org/1999/xlink" version="1.1" viewBox="-10 0 413 1000">
   <path fill="currentColor"
d="M82.2246 594.813q-16.2559 0 -28.625 -1.63477q-12.3701 -1.63672 -20.8516 -3.60059v-51.6963q9.18848 1.96289 18.7305 3.27148q9.54297 1.30859 20.8516 1.30859q21.9111 0 37.8145 -6.87109t27.5664 -19.6318q11.6621 -12.7607 18.7295 -30.4297l30.3945 -71.3291
v49.7334l-163.276 -376.934h66.4414l81.9912 199.592q7.06836 17.668 13.0762 34.0283t10.9561 31.7383q4.94824 15.3789 7.77441 29.7754h2.82812q4.24023 -16.3604 13.0752 -42.8633q8.83594 -26.5029 19.4375 -53.334l77.0449 -198.937h67.1475l-163.276 399.184
q-13.4287 32.7197 -31.4521 57.2598q-18.0254 24.54 -43.8232 37.9551q-25.7998 13.415 -62.5547 13.415z" />
</svg>
