<?xml version="1.0" standalone="no"?>
<!DOCTYPE svg PUBLIC "-//W3C//DTD SVG 1.1//EN" "http://www.w3.org/Graphics/SVG/1.1/DTD/svg11.dtd" >
<svg xmlns="http://www.w3.org/2000/svg" xmlns:xlink="http://www.w3.org/1999/xlink" version="1.1" viewBox="-10 0 389 1000">
   <path fill="currentColor"
d="M156.054 513.144q-33.9395 0 -65.1162 -5.5127t-51.6992 -14.4717v-50.3037q26.8369 9.64746 56.0391 14.4707q29.2051 4.82324 56.042 4.82324q67.8779 0 102.607 -34.4551t34.7295 -104.745q0 -69.5996 -34.3359 -105.777q-34.333 -36.1777 -97.4756 -36.1777
q-22.1025 0 -47.7529 4.82324q-25.6523 4.82422 -48.542 13.7822l-20.5215 -48.9268q26.835 -9.64746 58.8027 -15.1602q31.9658 -5.5127 61.1689 -5.5127q61.5664 0 106.16 22.0508q44.5947 22.0518 68.6689 64.7764q24.0732 42.7256 24.0732 105.434
q0 90.2725 -53.6719 140.579q-53.6709 50.3037 -149.177 50.3037zM81.8613 340.867v-49.6162h239.154v49.6162h-239.154z" />
</svg>
