<?xml version="1.0" standalone="no"?>
<!DOCTYPE svg PUBLIC "-//W3C//DTD SVG 1.1//EN" "http://www.w3.org/Graphics/SVG/1.1/DTD/svg11.dtd" >
<svg xmlns="http://www.w3.org/2000/svg" xmlns:xlink="http://www.w3.org/1999/xlink" version="1.1" viewBox="-10 0 413 1000">
   <path fill="currentColor"
d="M197.008 82.0811q53.8164 0 94.3535 22.0723q40.5371 22.0713 63.252 65.5039q22.7139 43.4316 22.7139 107.511q0 62.6572 -20.6182 107.513q-20.6172 44.8555 -58.0088 69.0645q-37.3926 24.208 -87.0146 24.208q-47.5264 0 -82.4727 -21.3604
q-34.9453 -21.3604 -53.4658 -60.1641q-18.5215 -38.8037 -18.5215 -90.7793v-37.7363h256.5q-1.39746 -64.792 -32.499 -98.6123q-31.1016 -33.8193 -87.0146 -33.8193q-35.6436 0 -63.251 6.76367q-27.6074 6.76465 -56.9609 19.5801v-54.8252
q28.6543 -12.8154 56.6104 -18.8672q27.958 -6.05176 66.3975 -6.05176zM121.525 317.753q0.699219 32.04 10.1348 56.6035q9.43457 24.5645 29.7041 38.4482q20.2676 13.8838 51.0195 13.8838q44.0312 0 69.542 -28.8359t30.4023 -80.0996h-190.803z" />
</svg>
