<?xml version="1.0" standalone="no"?>
<!DOCTYPE svg PUBLIC "-//W3C//DTD SVG 1.1//EN" "http://www.w3.org/Graphics/SVG/1.1/DTD/svg11.dtd" >
<svg xmlns="http://www.w3.org/2000/svg" xmlns:xlink="http://www.w3.org/1999/xlink" version="1.1" viewBox="-10 0 413 1000">
   <path fill="currentColor"
d="M74.2334 446.591q-9.31152 0 -17.3828 -1.48535q-8.06934 -1.48438 -16.1396 -3.8623v-45.1504q8.07031 1.78223 13.3467 2.37793q5.27637 0.59375 10.8643 0.59375q14.8975 0 24.8311 -6.23828q9.93262 -6.23828 15.8301 -21.6846q5.89746 -15.4453 8.38086 -43.9629
q1.86133 -20.7939 3.41406 -40.3984q1.55176 -19.6035 2.79395 -42.1797q1.24023 -22.5752 3.10352 -51.6855q1.8623 -29.1104 3.72461 -68.915h225.343v318.432h-54.6289v-274.469h-123.534q-1.8623 27.3281 -3.10449 49.9033q-1.24121 22.5762 -2.4834 42.1807
q-1.24219 19.6055 -2.48242 37.4277q-1.24219 17.8223 -3.10449 35.0508q-6.20703 61.7852 -26.0723 87.9248q-19.8652 26.1406 -62.6992 26.1406z" />
</svg>
