<?xml version="1.0" encoding="UTF-8" standalone="no"?>
<svg
   version="1.1"
   viewBox="-10 0 458 1000"
   id="svg1"
   sodipodi:docname="uni1C8A_NotoSans-Regular.svg"
   xml:space="preserve"
   inkscape:version="1.3.2 (091e20e, 2023-11-25, custom)"
   xmlns:inkscape="http://www.inkscape.org/namespaces/inkscape"
   xmlns:sodipodi="http://sodipodi.sourceforge.net/DTD/sodipodi-0.dtd"
   xmlns="http://www.w3.org/2000/svg"
   xmlns:svg="http://www.w3.org/2000/svg"><defs
     id="defs1" /><sodipodi:namedview
     id="namedview1"
     pagecolor="#ffffff"
     bordercolor="#000000"
     borderopacity="0.25"
     inkscape:showpageshadow="2"
     inkscape:pageopacity="0.0"
     inkscape:pagecheckerboard="0"
     inkscape:deskcolor="#d1d1d1"
     inkscape:zoom="0.5"
     inkscape:cx="317"
     inkscape:cy="431"
     inkscape:window-width="1920"
     inkscape:window-height="991"
     inkscape:window-x="-9"
     inkscape:window-y="-9"
     inkscape:window-maximized="1"
     inkscape:current-layer="svg1" /><path
     id="path1"
     d="M 11 228 L 11 303 L 181 303 L 181 800 L 268 800 L 268 799.98242 L 371.00586 799.98242 C 443.00579 799.98242 497.83923 784.81572 535.50586 754.48242 C 573.17249 724.14912 592.00586 681.3157 592.00586 625.98242 C 592.00586 570.64915 573.50582 529.14906 536.50586 501.48242 C 499.5059 473.81578 444.33912 459.98242 371.00586 459.98242 L 268.00586 459.98242 L 268.00586 303 L 438 303 L 438 228 L 11 228 z M 268.00586 532.98242 L 371.00586 532.98242 C 416.33914 532.98242 449.33921 540.64911 470.00586 555.98242 C 490.67251 571.31574 501.00586 595.31578 501.00586 627.98242 C 501.00586 660.64906 490.33917 685.31577 469.00586 701.98242 C 447.67255 718.64908 415.00582 726.98242 371.00586 726.98242 L 268.00586 726.98242 L 268.00586 532.98242 z " /></svg>
