<?xml version="1.0" encoding="UTF-8" standalone="no"?>
<svg
   version="1.1"
   viewBox="-10 0 725 1000"
   id="svg1"
   sodipodi:docname="uni1C89_NotoSans-Regular.svg"
   xml:space="preserve"
   inkscape:version="1.3.2 (091e20e, 2023-11-25, custom)"
   xmlns:inkscape="http://www.inkscape.org/namespaces/inkscape"
   xmlns:sodipodi="http://sodipodi.sourceforge.net/DTD/sodipodi-0.dtd"
   xmlns="http://www.w3.org/2000/svg"
   xmlns:svg="http://www.w3.org/2000/svg"><defs
     id="defs1" /><sodipodi:namedview
     id="namedview1"
     pagecolor="#ffffff"
     bordercolor="#000000"
     borderopacity="0.25"
     inkscape:showpageshadow="2"
     inkscape:pageopacity="0.0"
     inkscape:pagecheckerboard="0"
     inkscape:deskcolor="#d1d1d1"
     inkscape:zoom="0.70710678"
     inkscape:cx="260.9224"
     inkscape:cy="548.00775"
     inkscape:window-width="1920"
     inkscape:window-height="991"
     inkscape:window-x="-9"
     inkscape:window-y="-9"
     inkscape:window-maximized="1"
     inkscape:current-layer="svg1" /><path
     id="path1"
     d="M 10 86 L 10 165 L 182 165 L 182 800 L 221.00195 800 L 221.00195 800.00195 L 370.00195 800.00195 C 457.3352 800.00195 524.002 781.00192 570.00195 743.00195 C 616.00191 705.00199 639.00195 650.66855 639.00195 580.00195 C 639.00195 508.00203 616.50191 454.00192 571.50195 418.00195 C 526.502 382.00199 459.33519 364.00195 370.00195 364.00195 L 271.00195 364.00195 L 271.00195 165 L 518 165 L 518 86 L 10 86 z M 271.00195 441.00195 L 370.00195 441.00195 C 430.66856 441.00195 475.16865 452.16865 503.50195 474.50195 C 531.83525 496.83526 546.00195 532.33533 546.00195 581.00195 C 546.00195 629.00191 531.66859 664.66865 503.00195 688.00195 C 474.33531 711.33526 430.00189 723.00195 370.00195 723.00195 L 271.00195 723.00195 L 271.00195 441.00195 z " /></svg>
