<?xml version="1.0" standalone="no"?>
<!DOCTYPE svg PUBLIC "-//W3C//DTD SVG 1.1//EN" "http://www.w3.org/Graphics/SVG/1.1/DTD/svg11.dtd" >
<svg xmlns="http://www.w3.org/2000/svg" xmlns:xlink="http://www.w3.org/1999/xlink" version="1.1" viewBox="-10 0 1150 1000">
   <path fill="currentColor"
d="M1090 505q0 49 -17 86t-49.5 57t-79.5 20q-50 0 -82.5 -20.5t-48.5 -57t-16 -85.5q0 -73 36 -118t111 -45q48 0 80 20.5t49 57t17 85.5zM839 505q0 60 25.5 94.5t79.5 34.5t79 -34.5t25 -94.5t-25 -94t-79 -34t-79.5 34t-25.5 94zM918 503q0 -16 8 -22.5t19 -6.5
t19.5 6.5t8.5 22.5t-8.5 23t-19.5 7t-19 -7t-8 -23zM964 239q0 49 -17 86t-49.5 57t-79.5 20q-50 0 -82.5 -20.5t-48.5 -57t-16 -85.5q0 -73 36 -118t111 -45q48 0 80 20.5t49 57t17 85.5zM713 239q0 60 25.5 94.5t79.5 34.5t79 -34.5t25 -94.5t-25 -94t-79 -34t-79.5 34
t-25.5 94zM792 237q0 -16 8 -22.5t19 -6.5t19.5 6.5t8.5 22.5t-8.5 23t-19.5 7t-19 -7t-8 -23zM713 239zM671 239zM964 772q0 49 -17 86t-49.5 57t-79.5 20q-50 0 -82.5 -20.5t-48.5 -57t-16 -85.5q0 -73 36 -118t111 -45q48 0 80 20.5t49 57t17 85.5zM713 772
q0 60 25.5 94.5t79.5 34.5t79 -34.5t25 -94.5t-25 -94t-79 -34t-79.5 34t-25.5 94zM792 770q0 -16 8 -22.5t19 -6.5t19.5 6.5t8.5 22.5t-8.5 23t-19.5 7t-19 -7t-8 -23zM696 686.5zM671 772zM839 505q0 49 -17 86t-49.5 57t-79.5 20q-50 0 -82.5 -20.5t-48.5 -57t-16 -85.5
q0 -73 36 -118t111 -45q48 0 80 20.5t49 57t17 85.5zM588 505q0 60 25.5 94.5t79.5 34.5t79 -34.5t25 -94.5t-25 -94t-79 -34t-79.5 34t-25.5 94zM667 503q0 -16 8 -22.5t19 -6.5t19.5 6.5t8.5 22.5t-8.5 23t-19.5 7t-19 -7t-8 -23zM336 505q0 49 -17 86t-49.5 57t-79.5 20
q-50 0 -82.5 -20.5t-48.5 -57t-16 -85.5q0 -73 36 -118t111 -45q48 0 80 20.5t49 57t17 85.5zM85 505q0 60 25.5 94.5t79.5 34.5t79 -34.5t25 -94.5t-25 -94t-79 -34t-79.5 34t-25.5 94zM164 503q0 -16 8 -22.5t19 -6.5t19.5 6.5t8.5 22.5t-8.5 23t-19.5 7t-19 -7t-8 -23z
M713 239q0 49 -17 86t-49.5 57t-79.5 20q-50 0 -82.5 -20.5t-48.5 -57t-16 -85.5q0 -73 36 -118t111 -45q48 0 80 20.5t49 57t17 85.5zM462 239q0 60 25.5 94.5t79.5 34.5t79 -34.5t25 -94.5t-25 -94t-79 -34t-79.5 34t-25.5 94zM541 237q0 -16 8 -22.5t19 -6.5t19.5 6.5
t8.5 22.5t-8.5 23t-19.5 7t-19 -7t-8 -23zM587 505q0 49 -17 86t-49.5 57t-79.5 20q-50 0 -82.5 -20.5t-48.5 -57t-16 -85.5q0 -73 36 -118t111 -45q48 0 80 20.5t49 57t17 85.5zM336 505q0 60 25.5 94.5t79.5 34.5t79 -34.5t25 -94.5t-25 -94t-79 -34t-79.5 34t-25.5 94z
M415 503q0 -16 8 -22.5t19 -6.5t19.5 6.5t8.5 22.5t-8.5 23t-19.5 7t-19 -7t-8 -23zM462 239q0 49 -17 86t-49.5 57t-79.5 20q-50 0 -82.5 -20.5t-48.5 -57t-16 -85.5q0 -73 36 -118t111 -45q48 0 80 20.5t49 57t17 85.5zM211 239q0 60 25.5 94.5t79.5 34.5t79 -34.5
t25 -94.5t-25 -94t-79 -34t-79.5 34t-25.5 94zM290 237q0 -16 8 -22.5t19 -6.5t19.5 6.5t8.5 22.5t-8.5 23t-19.5 7t-19 -7t-8 -23zM713 772q0 49 -17 86t-49.5 57t-79.5 20q-50 0 -82.5 -20.5t-48.5 -57t-16 -85.5q0 -73 36 -118t111 -45q48 0 80 20.5t49 57t17 85.5z
M462 772q0 60 25.5 94.5t79.5 34.5t79 -34.5t25 -94.5t-25 -94t-79 -34t-79.5 34t-25.5 94zM541 770q0 -16 8 -22.5t19 -6.5t19.5 6.5t8.5 22.5t-8.5 23t-19.5 7t-19 -7t-8 -23zM462 772q0 49 -17 86t-49.5 57t-79.5 20q-50 0 -82.5 -20.5t-48.5 -57t-16 -85.5
q0 -73 36 -118t111 -45q48 0 80 20.5t49 57t17 85.5zM211 772q0 60 25.5 94.5t79.5 34.5t79 -34.5t25 -94.5t-25 -94t-79 -34t-79.5 34t-25.5 94zM290 770q0 -16 8 -22.5t19 -6.5t19.5 6.5t8.5 22.5t-8.5 23t-19.5 7t-19 -7t-8 -23z" />
</svg>
