<?xml version="1.0" standalone="no"?>
<!DOCTYPE svg PUBLIC "-//W3C//DTD SVG 1.1//EN" "http://www.w3.org/Graphics/SVG/1.1/DTD/svg11.dtd" >
<svg xmlns="http://www.w3.org/2000/svg" xmlns:xlink="http://www.w3.org/1999/xlink" version="1.1" viewBox="-10 0 543 1000">
   <path fill="currentColor"
d="M265 255l35 -114h52v123h155v68h-155v310q0 49 23.5 72.5t60.5 23.5q20 0 41 -3.5t34 -7.5v67q-14 7 -40 11.5t-50 4.5q-42 0 -77.5 -14.5t-57.5 -50.5t-22 -101v-117.925l-1 -0.0751953l1 -18.2197v-16.584q-1.55371 -34.04 -12.2354 -62.2383q-12.501 -33 -34.5 -56.5
q-22 -23.5 -50 -36.5t-59 -13q-14.001 0 -29.5 2q-15.501 2 -28.5 5l-11 -81q12.999 -3 30.5 -4.5q17.499 -1.5 32.5 -1.5q36.999 0 68 14.5q35.9346 16.8096 44.7012 22.0732q18.0908 10.8623 28.7754 20.3896q6.73828 6.00684 20.4053 20.7656z" />
</svg>
