<?xml version="1.0" standalone="no"?>
<!DOCTYPE svg PUBLIC "-//W3C//DTD SVG 1.1//EN" "http://www.w3.org/Graphics/SVG/1.1/DTD/svg11.dtd" >
<svg xmlns="http://www.w3.org/2000/svg" xmlns:xlink="http://www.w3.org/1999/xlink" version="1.1" viewBox="-10 0 591 1000">
   <path fill="currentColor"
d="M503 254q15 0 32.5 1.5t30.5 4.5l-11 81q-13 -3 -28.5 -5t-29.5 -2q-31 0 -59 13t-50 36.5t-34.5 56.5t-12.5 74v286h-88v-264.762l-9.26465 -0.696289l1.26465 -23.042q0 -41 -12.5 -74q-12.501 -33 -34.5 -56.5q-22 -23.5 -50 -36.5t-59 -13q-14.001 0 -29.5 2
q-15.501 2 -28.5 5l-11 -81q12.999 -3 30.5 -4.5q17.499 -1.5 32.5 -1.5q36.999 0 68 14.5q35.9346 16.8096 44.7012 22.0732q18.0908 10.8623 28.7754 20.3896q8.60742 7.67383 28.5234 29.6289v-74.0918h72l10 98h4q17 -30 41 -54.5t55 -39t68 -14.5z" />
</svg>
