<?xml version="1.0" standalone="no"?>
<!DOCTYPE svg PUBLIC "-//W3C//DTD SVG 1.1//EN" "http://www.w3.org/Graphics/SVG/1.1/DTD/svg11.dtd" >
<svg xmlns="http://www.w3.org/2000/svg" xmlns:xlink="http://www.w3.org/1999/xlink" version="1.1" viewBox="-10 0 790 1000">
   <path fill="currentColor"
d="M505 254q96 0 145 46.5t49 150.5v349h-87v-343q0 -65 -29 -97t-91 -32q-89 0 -123 50t-34 144v278h-88v-366.274q-11.8779 -27.124 -30.7354 -47.2676q-22 -23.5 -50 -36.5t-59 -13q-14.001 0 -29.5 2q-15.501 2 -28.5 5l-11 -81q12.999 -3 30.5 -4.5
q17.499 -1.5 32.5 -1.5q36.999 0 68 14.5q35.9346 16.8096 44.7012 22.0732q18.0908 10.8623 28.7754 20.3896q1.86426 1.66211 4.25879 3.99414v-53.915h71l13 73h5q18 -28 44.5 -46.5t58.5 -27.5t66 -9z" />
</svg>
