<?xml version="1.0" standalone="no"?>
<!DOCTYPE svg PUBLIC "-//W3C//DTD SVG 1.1//EN" "http://www.w3.org/Graphics/SVG/1.1/DTD/svg11.dtd" >
<svg xmlns="http://www.w3.org/2000/svg" xmlns:xlink="http://www.w3.org/1999/xlink" version="1.1" viewBox="-10 0 657 1000">
   <path fill="currentColor"
d="M602 652q0 52 -26 87t-74 53t-114 18q-56 0 -96.5 -9t-71.5 -25v-80q32 16 77.5 29.5t92.5 13.5q67 0 97 -21.5t30 -57.5q0 -20 -11 -36t-39.5 -32t-81.5 -36q-52 -20 -89 -40t-57 -48q-15.6348 -21.8877 -19.0469 -53.5537q-8.06348 -13.2412 -16.4297 -25.9092
q-13.5234 -19.5371 -50 -36.5q-27.5234 -13.0371 -59 -13q-13.5234 -0.0371094 -29.5 2q-15.0234 1.96289 -28.5 5l-11 -81q13.4766 -3.03711 30.5 -4.5q17.9766 -1.53711 32.5 -1.5q37.4766 -0.0371094 68 14.5q35.4766 16.4629 44.7012 22.0732
q17.7754 10.3896 28.7754 20.3896q3.24512 2.88477 9.27832 9.12012q13.2695 -19.4854 35.2217 -34.1201q55.5 -37 145.5 -37q49 0 91.5 9.5t79.5 26.5l-30 70q-34 -14 -71 -24t-76 -10q-54 0 -82.5 17.5t-28.5 47.5q0 22 13 37.5t43.5 30t81.5 34.5q51 19 87 39t55 48.5
t19 71.5z" />
</svg>
