<?xml version="1.0" standalone="no"?>
<!DOCTYPE svg PUBLIC "-//W3C//DTD SVG 1.1//EN" "http://www.w3.org/Graphics/SVG/1.1/DTD/svg11.dtd" >
<svg xmlns="http://www.w3.org/2000/svg" xmlns:xlink="http://www.w3.org/1999/xlink" version="1.1" viewBox="-10 0 815 1000">
   <path fill="currentColor"
d="M479 737q85 0 119.5 -46.5t34.5 -140.5v-16q0 -100 -33 -153.5t-122 -53.5q-71 0 -106.5 56.5t-35.5 151.5q0 96 35.5 149t107.5 53zM465 810q-100 0 -160 -69.5t-60 -207.5q0 -36.4004 4.20898 -68.1055q-2.7168 -11.3555 -6.70898 -21.8945q-12.501 -33 -34.5 -56.5
q-22 -23.5 -50 -36.5t-59 -13q-14.001 0 -29.5 2q-15.501 2 -28.5 5l-11 -81q12.999 -3 30.5 -4.5q17.499 -1.5 32.5 -1.5q36.999 0 68 14.5q35.9346 16.8096 44.7012 22.0732q18.0908 10.8623 28.7754 20.3896q10.6855 9.52637 38.8008 41.0645l6.60352 7.32227
q11.0566 -20.8799 25.6191 -37.8496q60.5 -70.5 160.5 -70.5q42 0 73 10.5t54 28.5t39 40h6q-1 -13 -3.5 -38.5t-2.5 -40.5v-214h88v760h-71l-13 -72h-4q-16 23 -39 41.5t-54.5 29.5t-73.5 11z" />
</svg>
