<?xml version="1.0" standalone="no"?>
<!DOCTYPE svg PUBLIC "-//W3C//DTD SVG 1.1//EN" "http://www.w3.org/Graphics/SVG/1.1/DTD/svg11.dtd" >
<svg xmlns="http://www.w3.org/2000/svg" xmlns:xlink="http://www.w3.org/1999/xlink" version="1.1" viewBox="-10 0 938 1000">
   <path fill="currentColor"
d="M784.221 27.1973q22.4248 0 38.1221 3.45605t27.6572 8.98633v66.3604q-8.96973 -4.14844 -24.667 -7.60449t-32.1426 -3.45605q-31.3955 0 -53.8203 18.6641q-22.4248 18.6631 -55.3145 64.2861l-168.936 237.79q47.8398 63.5947 73.2549 114.747t25.415 111.982
q0 66.3604 -40.3643 105.762q-40.3652 39.4014 -109.136 39.4014q-68.7695 0 -109.135 -38.71t-40.3652 -103.688q0 -63.5957 28.4053 -115.439t76.2451 -114.056l-174.915 -244.703q-28.4053 -40.0918 -50.8301 -58.0645t-55.3154 -17.9727
q-19.4346 -1.38281 -33.6367 4.14746q-14.2031 5.53027 -21.6777 8.29492v-64.9775q11.96 -5.5293 29.9004 -10.3682q17.9395 -4.83887 40.3643 -4.83887q49.335 0 81.4775 22.8105q32.1426 22.8115 71.0127 78.1113l98.6699 143.78q19.4355 26.2676 34.3848 48.3877
q14.9502 22.1201 25.415 42.8574h4.48535q10.4648 -19.3555 26.1621 -42.8574q15.6982 -23.5029 35.1328 -49.7705l100.165 -143.779q35.8799 -51.1523 69.5176 -75.3467q33.6377 -24.1934 84.4678 -24.1934zM467.28 473.744q-32.8896 44.2402 -53.0723 82.9502
t-20.1826 81.5674t20.1826 62.2129q20.1826 19.3545 50.082 19.3545q29.9004 0 50.8301 -19.3545q20.9307 -19.3555 20.9307 -62.2129q0 -44.2393 -19.4355 -83.6406q-19.4346 -39.4014 -49.335 -80.877z" />
</svg>
