<?xml version="1.0" standalone="no"?>
<!DOCTYPE svg PUBLIC "-//W3C//DTD SVG 1.1//EN" "http://www.w3.org/Graphics/SVG/1.1/DTD/svg11.dtd" >
<svg xmlns="http://www.w3.org/2000/svg" xmlns:xlink="http://www.w3.org/1999/xlink" version="1.1" viewBox="-10 0 539 1000">
   <path fill="currentColor"
d="M462 810q-19 0 -34 -5.5t-25.5 -19t-19.5 -38.5l-79 -223q-6 -18 -14 -41.5t-16.5 -48.5t-15 -47t-10.5 -38h-4q-7 36 -21.5 83t-27.5 87l-92 281h-94l196 -538l-26 -67q-16 -44 -45.5 -66t-77.5 -22q-18 0 -31.5 2t-24.5 4v-70q9 -3 19.5 -4.5t22.5 -2.5t25 -1
q52 0 89.5 17t65 53t48.5 93l190 505q6 14 10 21.5t9.5 10.5t12.5 3q8 0 15 -2t12 -3v65q-7 3 -16 6t-19 4.5t-22 1.5z" />
</svg>
