<?xml version="1.0" standalone="no"?>
<!DOCTYPE svg PUBLIC "-//W3C//DTD SVG 1.1//EN" "http://www.w3.org/Graphics/SVG/1.1/DTD/svg11.dtd" >
<svg xmlns="http://www.w3.org/2000/svg" xmlns:xlink="http://www.w3.org/1999/xlink" version="1.1" viewBox="-10 0 559 1000">
   <path fill="currentColor"
d="M502 609q0 64 -31 108.5t-88.5 68.5t-135.5 24q-40 0 -76.5 -4q-13.707 -1.50195 -26.4971 -3.49805l-25.0029 63.498h-86l32.8916 -83.5322q-7.78027 -3.06641 -14.8916 -6.46777v-86q19.7422 8.77441 44.748 16.6465l100.888 -256.215
q-17.7158 -8.21582 -33.1357 -16.9316q-34.5 -19.5 -57.5 -44.5t-34.5 -57t-11.5 -74q0 -57 29 -97.5t80.5 -62.5t118.5 -22q28.708 0 55.0488 2.60449l30.9512 -78.6045h86l-36.9355 93.8008q33.2773 9.30273 61.9355 22.1992l-28 77q-29.9219 -12.9395 -64.0938 -22.6084
l-90.8506 230.722q2.4502 0.94043 4.94434 1.88672q63 23 106.5 49.5t66 63.5t22.5 93zM228.607 369.237l84.0049 -213.337q-13.1631 -0.900391 -26.6123 -0.900391q-45 0 -75 13t-45 36.5t-15 54.5q0 36 15 60t49 43q6.38086 3.56543 13.6074 7.2373zM271.023 479.924
l-96.834 245.917q37.5762 6.15918 76.8105 6.15918q53 0 89 -14t54 -40t18 -61t-15 -59t-51.5 -44.5q-28.5312 -16.0244 -74.4766 -33.5762z" />
</svg>
