<?xml version="1.0" standalone="no"?>
<!DOCTYPE svg PUBLIC "-//W3C//DTD SVG 1.1//EN" "http://www.w3.org/Graphics/SVG/1.1/DTD/svg11.dtd" >
<svg xmlns="http://www.w3.org/2000/svg" xmlns:xlink="http://www.w3.org/1999/xlink" version="1.1" viewBox="-10 0 489 1000">
   <path fill="currentColor"
d="M434 652q0 52 -26 87t-74 53t-114 18q-44.0293 0 -78.4775 -5.56348l-15.5225 35.5635h-86l25.1855 -57.7002q-6.79492 -3.00098 -13.1855 -6.2998v-80q19.0645 9.53223 42.9199 18.1768l77.1279 -176.704q-24.1855 -10.7363 -44.0479 -21.4727q-37 -20 -57 -48t-20 -72
q0 -68 55.5 -105t145.5 -37q22.1289 0 42.9326 1.9375l13.0674 -29.9375h86l-19.875 45.5352q25.5322 7.73926 48.875 18.4648l-30 70q-24.0986 -9.92285 -49.7031 -17.8359l-66.4648 152.273q48.5283 18.3184 83.168 37.5625q36 20 55 48.5t19 71.5zM203.994 464.282
l60.1191 -137.736q-9.00195 -0.545898 -18.1133 -0.545898q-54 0 -82.5 17.5t-28.5 47.5q0 22 13 37.5t43.5 30q5.86719 2.78906 12.4941 5.78223zM245.141 567.043l-73.3457 168.039q24.8848 3.91797 50.2051 3.91797q67 0 97 -21.5t30 -57.5q0 -20 -11 -36t-39.5 -32
q-20.4023 -11.4541 -53.3594 -24.957z" />
</svg>
